<svg
  width="128"
  height="24"
  viewBox="0 0 128 24"
  fill="none"
  xmlns="http://www.w3.org/2000/svg"
>
  <path
    d="M30.5538 4.98024V0.216294L24.8273 3.22463V3.04438C24.8273 1.14637 23.4646 0 21.4945 0H3.33278C1.25452 0 0 1.14637 0 3.04438V7.85519L8.02462 12.0009L0 16.1916V20.9916C0 22.8536 1.26173 24 3.33278 24H21.4909C23.461 24 24.8237 22.8536 24.8237 20.9916V20.7411L30.5538 23.7855V18.9494L17.2299 12.0009L30.5538 4.98024ZM12.6083 14.3657L22.4588 19.5226H2.72354L12.6083 14.3657ZM22.3867 4.47915L12.6083 9.60179L2.72354 4.47915H22.3867Z"
    fill="#E6E6E6"
  />
  <path
    d="M47.749 19.1754C42.0045 19.1754 37.9922 15.5254 37.9922 10.3018C37.9922 5.07824 42.0045 1.42822 47.749 1.42822C49.2 1.42822 50.9015 1.59225 53.5169 2.78008V6.49678C51.6261 5.44414 49.7605 4.91061 47.9671 4.91061C44.3621 4.91061 41.8531 7.12765 41.8531 10.3018C41.8531 13.476 44.3765 15.6912 47.9671 15.6912C49.7137 15.6912 51.6297 15.1505 53.5169 14.1176V17.8217C50.9015 19.0096 49.2 19.1754 47.749 19.1754Z"
    fill="#E6E6E6"
  />
  <path
    d="M61.2074 19.1741C57.8097 19.1741 55.4395 16.5947 55.4395 12.9015C55.4395 9.25145 57.9124 6.60181 61.3227 6.60181C63.2063 6.60181 64.5167 7.1768 65.5694 8.46738L65.6541 8.57191V7.21465H68.976V18.9055H65.6541V17.2436L65.5676 17.3698C64.7132 18.6009 63.3271 19.1741 61.2074 19.1741ZM62.3556 9.38663C60.3728 9.38663 58.9218 10.8647 58.9218 12.9015C58.9218 14.9383 60.3638 16.3875 62.3556 16.3875C64.3473 16.3875 65.8145 14.9202 65.8145 12.9015C65.8145 10.8827 64.3599 9.38663 62.3556 9.38663Z"
    fill="#E6E6E6"
  />
  <path
    d="M71.4917 23.9993V7.21465H74.8407V8.67465L74.9272 8.55389C75.5707 7.65265 77.0902 6.60181 79.2658 6.60181C82.6058 6.60181 85.0337 9.25145 85.0337 12.9015C85.0337 16.5947 82.6526 19.1741 79.2423 19.1741C77.2092 19.1741 75.7582 18.5865 74.9308 17.4311L74.8443 17.3103V23.9993H71.4917ZM78.114 9.38663C76.1313 9.38663 74.6803 10.8647 74.6803 12.9015C74.6803 14.9383 76.1223 16.3875 78.114 16.3875C80.1057 16.3875 81.5189 14.9202 81.5189 12.9015C81.5189 10.8827 80.0877 9.38663 78.114 9.38663V9.38663Z"
    fill="#E6E6E6"
  />
  <path
    d="M96.8362 19.1754C91.09 19.1754 87.0776 15.5254 87.0776 10.3018C87.0776 5.07824 91.09 1.42822 96.8362 1.42822C98.2782 1.42822 99.987 1.59225 102.604 2.78008V6.49678C100.715 5.44414 98.8478 4.91061 97.0561 4.91061C93.4512 4.91061 90.9422 7.12765 90.9422 10.3018C90.9422 13.476 93.4656 15.6912 97.0561 15.6912C98.8009 15.6912 100.719 15.1505 102.604 14.1176V17.8217C99.9888 19.0096 98.2854 19.1754 96.8362 19.1754Z"
    fill="#E6E6E6"
  />
  <path
    d="M110.792 19.1751C107.046 19.1751 104.627 17.4069 104.627 14.6689V6.86963H107.949V13.7064C107.949 15.3863 109.013 16.3885 110.792 16.3885C112.538 16.3885 113.582 15.3863 113.582 13.7064V6.86963H116.904V14.6707C116.904 17.4087 114.505 19.1751 110.792 19.1751Z"
    fill="#E6E6E6"
  />
  <path
    d="M124.241 19.1742C120.56 19.1742 119.255 16.8923 119.255 14.9384V6.24328L122.577 4.49487V6.86874H127.162V9.58687H122.577V14.2733C122.577 14.9024 122.817 16.366 125.044 16.366C125.771 16.3436 126.489 16.1916 127.162 15.9172V18.72C126 19.14 124.633 19.1742 124.241 19.1742Z"
    fill="#E6E6E6"
  />
</svg>